<svg xmlns="http://www.w3.org/2000/svg" xmlns:xlink="http://www.w3.org/1999/xlink" id="Calque_1" x="0" y="0" version="1.1" viewBox="0 0 350 140" style="enable-background:new 0 0 350 140" xml:space="preserve"><style type="text/css">.st0{fill:#fff}</style><g><polygon points="19.5 121.9 7.9 121.9 7.9 112 4.9 112 4.9 135 7.9 135 7.9 124.4 19.5 124.4 19.5 135 22.5 135 22.5 112 19.5 112" class="st0"/><path d="M40.4,123.3c0-1.8-0.6-3.1-1.7-4.1c-1.1-1-2.6-1.5-4.6-1.5c-1.2,0-2.4,0.2-3.4,0.7c-1.1,0.5-1.9,1.1-2.5,1.9 c-0.6,0.8-0.9,1.6-0.9,2.5h2.9c0-0.7,0.4-1.4,1.1-1.9s1.6-0.8,2.6-0.8c1.2,0,2.1,0.3,2.7,0.9c0.6,0.6,0.9,1.4,0.9,2.4v1.3h-2.8 c-2.5,0-4.4,0.5-5.7,1.5c-1.3,0.9-2,2.3-2,4.1c0,1.4,0.5,2.6,1.6,3.6c1,0.9,2.4,1.4,4.1,1.4c1.9,0,3.5-0.7,4.9-2.1 c0.1,0.9,0.2,1.5,0.4,1.8v0.2h3v-0.3c-0.4-0.9-0.6-2.1-0.6-3.7V123.3z M37.5,130.3c-0.4,0.7-1,1.3-1.8,1.8s-1.7,0.7-2.6,0.7 c-0.9,0-1.7-0.3-2.4-0.8c-0.6-0.5-0.9-1.2-0.9-2.1c0-2.1,1.8-3.1,5.4-3.1h2.3V130.3z" class="st0"/><path d="M55.4,130.3c-0.7,1.7-2.2,2.5-4.4,2.5c-2.1,0-3.2-1.3-3.2-3.9v-11h-2.9V129c0,2.1,0.4,3.6,1.4,4.7 c1,1.1,2.4,1.6,4.2,1.6c2.2,0,3.9-0.7,5-2v1.7h2.8v-17.1h-2.9V130.3z" class="st0"/><path d="M67.2,132.3c-0.3-0.3-0.4-0.8-0.4-1.5v-10.6H70v-2.3h-3.2v-4.1v-0.2H64v4.1h-3.1v2.3H64v10.6 c0,1.5,0.3,2.6,1,3.4c0.6,0.8,1.6,1.2,2.9,1.2c0.7,0,1.4-0.1,2.2-0.3v-2.3c-0.6,0.1-1.1,0.2-1.4,0.2 C68,132.8,67.5,132.6,67.2,132.3z" class="st0"/><path d="M80.1,117.7c-1.4,0-2.6,0.3-3.8,1.1c-1.1,0.7-2.1,1.8-2.7,3.1c-0.7,1.3-1,2.8-1,4.5v0.5c0,2.6,0.8,4.6,2.2,6.1 c1.4,1.5,3.3,2.3,5.6,2.3c2.9,0,5-1.1,6.5-3.1l-1.8-1.4c-0.6,0.7-1.2,1.3-1.9,1.7s-1.6,0.6-2.6,0.6c-1.5,0-2.7-0.6-3.6-1.6 c-1-1.1-1.5-2.4-1.5-4.1h11.6v-1.2c0-2.7-0.6-4.8-1.8-6.3C84,118.4,82.3,117.7,80.1,117.7z M84.1,124.9h-8.5 c0.2-1.5,0.7-2.7,1.5-3.6c0.8-0.9,1.8-1.3,3-1.3c1.2,0,2.1,0.4,2.8,1.3c0.7,0.8,1.1,1.9,1.2,3.4V124.9z" class="st0"/><polygon points="104.6 124.4 114.5 124.4 114.5 121.9 104.6 121.9 104.6 114.5 116 114.5 116 112 101.6 112 101.6 135 116.2 135 116.2 132.5 104.6 132.5" class="st0"/><polygon points="109.4 110.3 113.6 105.7 110.1 105.7 107.1 110.3" class="st0"/><path d="M128.7,132c-0.8,0.6-1.7,0.9-2.7,0.9c-1.5,0-2.7-0.5-3.5-1.6c-0.8-1-1.2-2.5-1.2-4.5v-0.6c0-2,0.4-3.5,1.2-4.6 c0.8-1.1,1.9-1.6,3.4-1.6c1.1,0,2,0.4,2.8,1.1c0.8,0.7,1.2,1.6,1.3,2.7h2.7c-0.1-1.9-0.7-3.4-2-4.5c-1.3-1.1-2.9-1.7-4.8-1.7 c-1.5,0-2.9,0.4-4,1.1c-1.1,0.7-2,1.7-2.6,3c-0.6,1.3-0.9,2.7-0.9,4.4v0.5c0,2.7,0.7,4.9,2.1,6.4c1.3,1.5,3.2,2.3,5.5,2.3 c1.2,0,2.3-0.3,3.3-0.8c1.1-0.5,1.9-1.2,2.5-2.1c0.6-0.9,0.9-1.8,1-2.8H130C129.9,130.6,129.5,131.4,128.7,132z" class="st0"/><path d="M143,117.6c-1.5,0-2.8,0.4-4,1.1c-1.1,0.7-2,1.8-2.7,3.1c-0.7,1.3-1,2.8-1,4.5h-0.1v0.2c0,2.7,0.8,4.8,2.2,6.4 c1.4,1.6,3.3,2.4,5.6,2.4c1.6,0,2.9-0.4,4.1-1.1c1.2-0.8,2.1-1.8,2.7-3.1c0.7-1.4,1-2.8,1-4.5v-0.2c0-2.7-0.8-4.8-2.2-6.4 C147.2,118.4,145.3,117.6,143,117.6z M146.5,131.2c-0.8,1.1-2,1.7-3.5,1.7c-1.4,0-2.6-0.6-3.5-1.7c-0.9-1.2-1.3-2.7-1.3-4.6 c0-2.1,0.5-3.7,1.3-4.8c0.9-1.1,2.1-1.7,3.5-1.7c1.4,0,2.6,0.5,3.5,1.7c0.9,1.1,1.3,2.6,1.3,4.5C147.8,128.4,147.4,130,146.5,131.2 z" class="st0"/><rect width="2.9" height="24.2" x="154.7" y="110.8" class="st0"/><path d="M169.1,117.7c-1.4,0-2.6,0.3-3.8,1.1c-1.1,0.7-2.1,1.8-2.7,3.1c-0.7,1.3-1,2.8-1,4.5v0.5 c0,2.6,0.7,4.6,2.2,6.1c1.4,1.5,3.3,2.3,5.6,2.3c2.8,0,5-1.1,6.5-3.1l-1.8-1.4c-0.6,0.7-1.2,1.3-1.9,1.7s-1.6,0.6-2.6,0.6 c-1.5,0-2.7-0.6-3.6-1.6c-1-1.1-1.5-2.4-1.5-4.1h11.6v-1.2c0-2.7-0.6-4.8-1.8-6.3C173,118.4,171.3,117.7,169.1,117.7z M173,124.9 h-8.5c0.2-1.5,0.7-2.7,1.5-3.6c0.8-0.9,1.8-1.3,3-1.3s2.2,0.4,2.8,1.3c0.7,0.8,1.1,1.9,1.2,3.4V124.9z" class="st0"/><path d="M201.3,130.3c-0.5,0.6-1.1,1.1-1.7,1.5c-0.6,0.4-1.4,0.6-2.3,0.6c-1.3,0-2.3-0.4-3.2-1.4 c-0.7-0.8-1.2-1.8-1.3-3.1h11.5v-1.8c0-2.8-0.7-5.1-2-6.6c-1.3-1.7-3.1-2.5-5.5-2.5c-1.5,0-2.8,0.4-4.1,1.2 c-1.2,0.8-2.2,1.9-2.9,3.4c-0.7,1.4-1,3-1,4.8v0.5c0,2.7,0.8,4.9,2.3,6.5c1.6,1.6,3.6,2.5,6.1,2.5c3.1,0,5.4-1.2,6.9-3.6l0.3-0.4 l-2.7-2.1L201.3,130.3z M194.2,121.7c0.7-0.7,1.5-1.1,2.5-1.1c1.1,0,1.9,0.3,2.5,1c0.6,0.6,0.9,1.6,1,2.7H193 C193.2,123.2,193.6,122.3,194.2,121.7z" class="st0"/><path d="M215.1,117c-1.8,0-3.3,0.6-4.6,1.7l-0.1-1.3h-3.9v18.2h4.1V123c0.4-0.7,0.8-1.2,1.4-1.7 c0.6-0.4,1.3-0.7,2.2-0.7c1,0,1.7,0.2,2.2,0.7c0.4,0.5,0.7,1.3,0.7,2.3v11.9h4.1v-11.9C221.1,118.2,217.8,117,215.1,117z" class="st0"/><polygon points="250.1 121.3 239.7 121.3 239.7 111.5 235.5 111.5 235.5 135.6 239.7 135.6 239.7 124.9 250.1 124.9 250.1 135.6 254.3 135.6 254.3 111.5 250.1 111.5" class="st0"/><path d="M272.2,123.1c0-1.9-0.7-3.4-1.9-4.5c-1.2-1.1-2.9-1.6-5-1.6c-1.3,0-2.5,0.3-3.6,0.7c-1.1,0.5-2,1.2-2.7,2.1 s-1,1.8-1,2.8v0.6h4.1v-0.6c0-0.6,0.3-1,0.8-1.4c0.6-0.5,1.4-0.7,2.3-0.7c1,0,1.8,0.2,2.3,0.7s0.7,1.2,0.7,2v0.8h-2.3 c-2.6,0-4.6,0.5-6,1.6c-1.5,1.1-2.3,2.6-2.3,4.6c0,1.6,0.6,3,1.8,4s2.7,1.6,4.5,1.6c1.7,0,3.2-0.5,4.5-1.5c0.1,0.4,0.2,0.7,0.3,0.9 l0.2,0.3h4v-0.8v-0.2c-0.5-0.8-0.7-2-0.7-3.5V123.1z M268.1,130.1c-0.3,0.6-0.8,1.1-1.5,1.5c-1.5,0.9-3.3,0.9-4.3,0 c-0.5-0.4-0.7-1-0.7-1.7c0-0.6,0-2.6,4.8-2.6h1.7V130.1z" class="st0"/><rect width="4.1" height="18.2" x="275.9" y="117.3" class="st0"/><path d="M277.9,111.1c-0.7,0-1.3,0.2-1.7,0.7c-0.4,0.4-0.6,1-0.6,1.6c0,0.6,0.2,1.1,0.6,1.6c0.4,0.4,1,0.7,1.7,0.7 s1.3-0.2,1.7-0.7c0.4-0.4,0.6-1,0.6-1.6c0-0.6-0.2-1.2-0.6-1.6C279.2,111.4,278.7,111.1,277.9,111.1z" class="st0"/><path d="M292,117c-1.8,0-3.3,0.6-4.6,1.7l-0.1-1.3h-3.9v18.2h4.1V123c0.4-0.7,0.8-1.2,1.4-1.7c0.6-0.4,1.3-0.7,2.2-0.7 c1,0,1.7,0.2,2.2,0.7c0.4,0.5,0.7,1.3,0.7,2.3v11.9h4.1v-11.9C298,118.2,294.7,117,292,117z" class="st0"/><path d="M315.4,123.1c0-1.9-0.7-3.4-1.9-4.5c-1.2-1.1-2.9-1.6-5-1.6c-1.3,0-2.5,0.3-3.6,0.7c-1.1,0.5-2,1.2-2.7,2.1 s-1,1.8-1,2.8v0.6h4.1v-0.6c0-0.6,0.3-1,0.8-1.4c0.6-0.5,1.4-0.7,2.3-0.7c1,0,1.8,0.2,2.3,0.7s0.7,1.2,0.7,2v0.8h-2.3 c-2.6,0-4.6,0.5-6,1.6c-1.5,1.1-2.3,2.6-2.3,4.6c0,1.6,0.6,3,1.8,4c1.2,1,2.7,1.6,4.5,1.6c1.7,0,3.2-0.5,4.5-1.5 c0.1,0.4,0.2,0.7,0.3,0.9l0.2,0.3h4v-0.8v-0.2c-0.5-0.8-0.7-2-0.7-3.5V123.1z M311.3,130.1c-0.3,0.6-0.8,1.1-1.5,1.5 c-1.5,0.9-3.3,0.9-4.3,0c-0.5-0.4-0.7-1-0.7-1.7c0-0.6,0-2.6,4.8-2.6h1.7V130.1z" class="st0"/><path d="M329.2,130.2L329.2,130.2c-0.6,1.4-1.8,2-3.8,2c-1.1,0-2.6-0.3-2.6-3.3v-11.6h-4.1V129c0,2.2,0.5,3.9,1.6,5.1 c1.1,1.2,2.6,1.8,4.6,1.8c1.8,0,3.3-0.4,4.5-1.3v1h3.9v-18.2h-4.1V130.2z" class="st0"/><path d="M341.7,113.3h-4.1v4.1h-3.1v3.4h3.1v10c0,1.6,0.4,2.8,1.1,3.7c0.8,0.9,1.9,1.4,3.4,1.4c0.8,0,1.6-0.1,2.4-0.3 l0.4-0.1V132l-0.6,0.1c-0.5,0.1-1,0.2-1.3,0.2s-0.8-0.1-1-0.3s-0.3-0.6-0.3-1.2v-10h3.2v-3.4h-3.2V113.3z" class="st0"/><path d="M327.5,93.1c4.8,0,9.2-2,12.3-5.1l-3.6-3.6c-2.1,2.3-5.2,3.7-8.6,3.7c-6.2,0-11.3-4.3-12.3-10.1h29.4 c0.1-0.7,0.2-1.5,0.2-2.3c0-9.6-7.7-17.4-17.3-17.4c-9.6,0-17.4,7.8-17.4,17.4C310.2,85.3,318,93.2,327.5,93.1z M327.9,63.4 c5.7,0,10.6,4.1,11.9,9.6h-24.1C317,67.5,322,63.4,327.9,63.4z" class="st0"/><path d="M274.2,80.7c-0.9,0-1.7,0.2-2.4,0.5l-0.1,0.1c-0.3,0.1-0.6,0.3-0.9,0.5c-0.2,0.1-0.3,0.3-0.4,0.4 c-0.2,0.1-0.3,0.2-0.5,0.4s-0.4,0.4-0.5,0.6c-0.1,0.1-0.2,0.2-0.2,0.3c-0.1,0.2-0.2,0.5-0.4,0.7c-0.1,0.1-0.1,0.2-0.2,0.4 c-0.1,0.1-0.1,0.3-0.1,0.4c-0.2,0.6-0.4,1.3-0.4,2c0,0.4,0,0.8,0.1,1.2c0,0.1,0.1,0.3,0.1,0.4c0.1,0.2,0.1,0.5,0.2,0.7 c0.1,0.2,0.2,0.3,0.2,0.5c0.1,0.2,0.2,0.4,0.3,0.5c0.1,0.2,0.2,0.4,0.4,0.5c0.1,0.1,0.2,0.2,0.3,0.4c0.2,0.2,0.3,0.3,0.5,0.5 c0.1,0.1,0.2,0.2,0.3,0.2c0.2,0.2,0.4,0.3,0.7,0.5c0.1,0,0.2,0.1,0.2,0.1c0.3,0.1,0.5,0.3,0.8,0.4c0.1,0,0.1,0,0.2,0 c0.3,0.1,0.6,0.2,1,0.3c0.3,0.1,0.7,0.1,1,0.1c1.6,0,3.1-0.6,4.1-1.6c0.6-0.6,1.1-1.2,1.4-2c0.2-0.4,0.3-0.8,0.4-1.2 c0.1-0.4,0.2-0.8,0.2-1.3c0-0.1,0-0.1,0-0.2C280.4,83.5,277.7,80.7,274.2,80.7z" class="st0"/><path d="M269.1,75.2c1.3-0.6,2.7-0.9,4.1-1c0.8-6.1,6-10.9,12.2-10.9c7,0,12.6,5.6,12.6,12.5c0,6.4-4.9,11.6-11.2,12.3 c-0.1,0.6-0.1,1.1-0.3,1.7c0,0.1,0,0.1,0,0.2c-0.2,0.7-0.4,1.4-0.7,2.1l-0.1,0.2l-0.1,0.1c-0.1,0.2-0.2,0.4-0.3,0.6 c0.1,0,0.3,0,0.4,0c9.7,0,17.4-7.8,17.4-17.4c-0.1-9.4-7.8-17.3-17.5-17.3c-4.9,0-9.3,2-12.5,5.3V40.1H268v35.7 c0.2-0.1,0.4-0.2,0.6-0.3S268.9,75.3,269.1,75.2z" class="st0"/><polygon points="56.2 58.3 56.2 93.2 74.4 93.2 74.4 58.3 74.4 40.1 74.4 5.2 70 5.2 56.2 5.2 56.2 40.1 47.2 40.1 23.1 40.1 23.1 5.2 4.9 5.2 4.9 40.1 4.9 58.3 4.9 93.2 23.1 93.2 23.1 58.3 44.2 58.3 56 58.3" class="st0"/><polygon points="121 93.2 124.5 93.2 162.1 93.2 162.1 75 124.2 75 121.3 75 114.3 75 92.6 75 92.6 93.2 114 93.2" class="st0"/><polygon points="123.5 58.3 125.8 58.3 143.9 58.3 143.9 40.1 129.9 40.1 128.1 40.1 120.8 40.1 92.6 40.1 92.6 58.3 116.4 58.3" class="st0"/><polygon points="249.8 93.2 249.8 58.3 249.8 40.1 249.8 5.2 246.3 5.2 239.1 5.2 231.6 5.2 231.6 8.9 231.6 35.1 231.6 40.1 198.6 40.1 198.5 40.1 198.5 30.7 198.5 5.2 180.3 5.2 180.3 40.1 180.3 58.3 180.3 78.3 180.3 93.2 185.4 93.2 185.5 93.2 188.8 93.2 198.5 93.2 198.5 58.3 231.6 58.3 231.6 93.2" class="st0"/><polygon points="126.9 23.4 134.5 23.4 134.6 23.4 135.7 23.4 148.6 23.4 162.1 23.4 162.1 5.2 148.6 5.2 144.8 5.2 144.4 5.2 144.3 5.2 136.2 5.2 126.2 5.2 92.6 5.2 92.6 23.4 126.2 23.4" class="st0"/></g></svg>