<svg xmlns="http://www.w3.org/2000/svg" xmlns:xlink="http://www.w3.org/1999/xlink" width="222.918" height="83.913"><defs><linearGradient id="a" x1=".501" y1="1.489" x2=".501" y2=".407" gradientUnits="objectBoundingBox"><stop offset="0" stop-color="#002f6b"/><stop offset="1" stop-color="#004a99"/></linearGradient><linearGradient id="b" x1=".499" y1=".61" x2=".499" y2=".495" xlink:href="#a"/><linearGradient id="c" x1=".466" y1=".499" x2="-.036" y2=".499" gradientUnits="objectBoundingBox"><stop offset="0" stop-color="#9c9e9f"/><stop offset="1" stop-color="#3e3d40"/></linearGradient><linearGradient id="d" x1=".586" y1=".5" x2=".987" y2=".5" gradientUnits="objectBoundingBox"><stop offset="0" stop-color="#c6c7c8"/><stop offset="1" stop-color="#707173"/></linearGradient><linearGradient id="e" x1=".499" y1=".143" x2=".499" y2=".506" gradientUnits="objectBoundingBox"><stop offset="0" stop-color="#006ab3"/><stop offset="1" stop-color="#009ee0"/></linearGradient><linearGradient id="f" x1=".506" y1=".605" x2=".506" y2=".904" gradientUnits="objectBoundingBox"><stop offset="0" stop-color="#002f6b"/><stop offset="1" stop-color="#009ee0"/></linearGradient></defs><g data-name="Groupe 2"><g data-name="Groupe 1"><path data-name="Tracé 1" d="M78.653 23.043H67.1V39.1h2.8V25.84h9.24a3.028 3.028 0 0 1 2.311.851 2.672 2.672 0 0 1 .973 2.189 3.045 3.045 0 0 1-.973 2.189 3.21 3.21 0 0 1-2.311.851H71.6v2.8h7.054a6.9 6.9 0 0 0 4.5-1.459A5.244 5.244 0 0 0 85.1 29a5.087 5.087 0 0 0-1.946-4.256 5.955 5.955 0 0 0-4.501-1.701Zm20.553 0h-4.5a8.286 8.286 0 0 0-5.837 2.189 7.686 7.686 0 0 0-2.311 5.716 7.9 7.9 0 0 0 8.148 8.152h4.5a7.882 7.882 0 0 0 5.837-2.311 8.385 8.385 0 0 0 2.311-5.837 7.43 7.43 0 0 0-2.311-5.716 7.889 7.889 0 0 0-5.837-2.193Zm3.892 11.8a5.232 5.232 0 0 1-3.77 1.459h-4.5A5 5 0 0 1 89.6 31.07a5.039 5.039 0 0 1 1.459-3.77 5.232 5.232 0 0 1 3.77-1.459h4.5A5.039 5.039 0 0 1 103.1 27.3a5.232 5.232 0 0 1 1.459 3.77 5.039 5.039 0 0 1-1.459 3.77Zm9.121-11.8h-2.8V39.1h13.864v-2.8h-11.064Zm23.35 0-5.716 7.9-6.081-7.9h-3.648l8.148 10.7V39.1h2.8v-5.355l7.9-10.7Zm23.593.243a1.486 1.486 0 0 0-1.095-.486c-.608 0-1.216.486-1.7 1.581l-5.354 10.459-5.351-10.459c-.608-1.095-1.095-1.581-1.7-1.581a1.32 1.32 0 0 0-1.095.486 2.486 2.486 0 0 0-.608 1.095l-3.65 14.719h3.162l2.311-11.188 5.351 10.337a1.834 1.834 0 0 0 1.7 1.095 1.644 1.644 0 0 0 1.459-1.095l5.351-10.337 2.313 11.188h3.162l-3.527-14.715a5.713 5.713 0 0 0-.729-1.099Zm18.242.243a1.966 1.966 0 0 0-1.216-.486 1.742 1.742 0 0 0-1.216.486 7.337 7.337 0 0 0-.972.971l-8.756 14.472h3.648l7.175-11.918 2.8 4.621h-4.256l-1.7 2.8h7.662l2.676 4.5h3.648L178.376 24.5a7.338 7.338 0 0 0-.976-.97Zm24.931 10.7a5.641 5.641 0 0 0 3.162-1.946 5.2 5.2 0 0 0 1.216-3.527 5.123 5.123 0 0 0-2.189-4.5 8.652 8.652 0 0 0-4.986-1.338h-11.554v16.057h2.8V25.84h9.116c2.554 0 3.77.973 3.77 3.04a2.634 2.634 0 0 1-1.216 2.311 4.5 4.5 0 0 1-2.554.73h-7.54v2.8h6.081l4.5 4.5h4.135Z" transform="translate(14.503 4.928)" fill="url(#a)"/></g></g><g data-name="Groupe 3" fill="#646567"><path data-name="Tracé 2" d="M82.941 56.064h-1.338v-7.54h1.338Z"/><path data-name="Tracé 3" d="M92.183 55.456c0 .486-.122.73-.486.73-.243 0-.486-.122-.851-.486l-4.743-4.865v5.229h-1.338v-6.81a.731.731 0 0 1 .122-.486c.122-.122.243-.243.365-.243a1.051 1.051 0 0 1 .73.365l4.743 4.865v-5.231h1.34v6.932Z"/><path data-name="Tracé 4" d="M100.21 52.659a3.23 3.23 0 0 1-1.095 2.676 4.518 4.518 0 0 1-2.8.73h-2.672v-1.341h2.675a3.418 3.418 0 0 0 1.824-.365 1.894 1.894 0 0 0 .73-1.7v-4.135h1.338v4.135Z"/><path data-name="Tracé 5" d="M108.237 56.064h-6.446v-7.54h6.446v1.338h-5.108v4.862h5.108Zm-.246-3.162h-4.254v-1.338h4.254Z"/><path data-name="Tracé 6" d="M117.357 56.064h-4.256a3.576 3.576 0 0 1-2.676-1.095 3.664 3.664 0 0 1-1.095-2.8 3.576 3.576 0 0 1 1.095-2.676 3.484 3.484 0 0 1 2.676-.969h4.256v1.338h-4.256a2.475 2.475 0 0 0-1.824.73 2.636 2.636 0 0 0-.608 1.7 2.041 2.041 0 0 0 .73 1.7 2.4 2.4 0 0 0 1.7.73h4.256Z"/><path data-name="Tracé 7" d="M125.505 49.862h-2.919v6.2h-1.338v-6.2h-2.918v-1.338h7.175Z"/><path data-name="Tracé 8" d="M127.816 56.064h-1.338v-7.54h1.338Z"/><path data-name="Tracé 9" d="M138.883 52.172a3.853 3.853 0 0 1-1.095 2.8 3.576 3.576 0 0 1-2.675 1.095h-2.067a3.576 3.576 0 0 1-2.675-1.095 3.664 3.664 0 0 1-1.095-2.8 3.576 3.576 0 0 1 1.095-2.675 3.484 3.484 0 0 1 2.675-.973h2.067a3.786 3.786 0 0 1 2.675.973 3.576 3.576 0 0 1 1.095 2.675Zm-1.216.122a2.494 2.494 0 0 0-2.554-2.554h-2.067a2.494 2.494 0 0 0-2.554 2.554 2.041 2.041 0 0 0 .73 1.7 2.388 2.388 0 0 0 1.824.608h2.067a2.987 2.987 0 0 0 1.824-.608 2.041 2.041 0 0 0 .73-1.7Z"/><path data-name="Tracé 10" d="M147.517 55.456c0 .486-.122.73-.486.73-.243 0-.486-.122-.851-.486l-4.743-4.865v5.229h-1.338v-6.81a.731.731 0 0 1 .122-.486c.122-.122.243-.243.365-.243a1.051 1.051 0 0 1 .73.365l4.743 4.865v-5.231h1.34v6.932Z"/><path data-name="Tracé 11" d="M164.057 56.064h-1.459l-1.095-5.229-2.554 4.867a.79.79 0 0 1-1.459 0l-2.554-4.865-1.095 5.229h-1.459l1.7-6.934a.632.632 0 0 1 .243-.486.922.922 0 0 1 .486-.243 1.159 1.159 0 0 1 .851.73l2.554 4.865 2.554-4.865c.243-.486.486-.73.851-.73a.632.632 0 0 1 .486.243.922.922 0 0 1 .243.486Z"/><path data-name="Tracé 12" d="M174.394 52.172a3.853 3.853 0 0 1-1.095 2.8 3.576 3.576 0 0 1-2.675 1.095h-2.067a3.576 3.576 0 0 1-2.675-1.095 3.664 3.664 0 0 1-1.095-2.8 3.576 3.576 0 0 1 1.095-2.675 3.484 3.484 0 0 1 2.675-.973h2.067a3.786 3.786 0 0 1 2.675.973 3.181 3.181 0 0 1 1.095 2.675Zm-1.216.122a2.494 2.494 0 0 0-2.554-2.554h-2.067a2.494 2.494 0 0 0-2.554 2.554 2.041 2.041 0 0 0 .73 1.7 2.388 2.388 0 0 0 1.824.608h2.067a2.987 2.987 0 0 0 1.824-.608 2.041 2.041 0 0 0 .73-1.7Z"/><path data-name="Tracé 13" d="M183.88 52.659a3.23 3.23 0 0 1-1.095 2.676 4.518 4.518 0 0 1-2.8.73h-.486a4.518 4.518 0 0 1-2.8-.73 3.23 3.23 0 0 1-1.095-2.676v-4.135h1.338v4.135a2 2 0 0 0 .973 1.824 7.6 7.6 0 0 0 2.189.243 3.418 3.418 0 0 0 1.824-.365 1.894 1.894 0 0 0 .73-1.7v-4.137h1.338v4.135Z"/><path data-name="Tracé 14" d="M191.907 56.064h-6.446v-7.54h1.338v6.2h5.108Z"/><path data-name="Tracé 15" d="M201.028 52.172a3.853 3.853 0 0 1-1.095 2.8 3.576 3.576 0 0 1-2.676 1.095h-4.256v-7.543h4.256a3.786 3.786 0 0 1 2.676.973 3.576 3.576 0 0 1 1.095 2.675Zm-1.338.122a2.494 2.494 0 0 0-2.554-2.554h-2.919v4.865h2.919a2.987 2.987 0 0 0 1.824-.608 2.041 2.041 0 0 0 .73-1.703Z"/><path data-name="Tracé 16" d="M203.582 56.064h-1.338v-7.54h1.338Z"/><path data-name="Tracé 17" d="M212.824 55.456c0 .486-.122.73-.486.73-.243 0-.486-.122-.851-.486l-4.743-4.865v5.229h-1.338v-6.81a.731.731 0 0 1 .122-.486c.122-.122.243-.243.365-.243a1.051 1.051 0 0 1 .73.365l4.743 4.865v-5.231h1.34v6.932Z"/><path data-name="Tracé 18" d="M222.918 56.064h-4.743a3.576 3.576 0 0 1-2.675-1.095 3.664 3.664 0 0 1-1.095-2.8 3.576 3.576 0 0 1 1.095-2.676 3.484 3.484 0 0 1 2.675-.973h4.257v1.338h-4.257a2.494 2.494 0 0 0-2.554 2.554 2.041 2.041 0 0 0 .73 1.7 2.388 2.388 0 0 0 1.824.608h3.405v-1.575h-3.527v-1.216h4.865v4.135Z"/></g><path data-name="Ligne 1" fill="none" stroke="#002f6b" stroke-width=".5" d="M71.144 0v83.913"/><g data-name="Groupe 4"><path data-name="Tracé 19" d="M54.118 11.797H6.2c-3.4 0-6.2 2.8-6.2 7.418v46.7a6.228 6.228 0 0 0 6.2 6.2h47.918a6.228 6.228 0 0 0 6.2-6.2V17.997a6.228 6.228 0 0 0-6.2-6.2Z" fill="none"/><path data-name="Tracé 20" d="M42.144 25.4A12.263 12.263 0 0 0 34 22.6H13.2v28.944h5.108V43.4H34a12.188 12.188 0 0 0 8.148-2.675 9.582 9.582 0 0 0 3.527-7.662 9.962 9.962 0 0 0-3.531-7.663Z" transform="translate(2.853 4.885)" fill="url(#b)"/><path data-name="Tracé 21" d="M2.5 18.524v42.93a5.139 5.139 0 0 0 5.108 5.108h13.377V55.738H13.81V23.145h7.175V12.2H7.608c-2.797 0-5.108 2.311-5.108 6.324Z" transform="translate(.54 2.637)" fill="url(#c)"/><path data-name="Tracé 22" d="M47.655 12.2H20.9v10.945h11.432a13.96 13.96 0 0 1 9.243 3.162 11.5 11.5 0 0 1 4.135 9 10.966 10.966 0 0 1-4.135 9 13.96 13.96 0 0 1-9.243 3.162H20.9V66.44h26.877a5.139 5.139 0 0 0 5.108-5.108V17.308a5.328 5.328 0 0 0-5.23-5.108Z" transform="translate(4.517 2.637)" fill="url(#d)"/><path data-name="Tracé 23" d="M13.9 31.935v-8.392a.238.238 0 0 1 .243-.243h19.215c5.229 0 9.364 2.919 10.824 6.689.73 3.04 2.067 5.229-17.026 5.594C16.7 35.826 13.9 34.488 13.9 31.935Z" transform="translate(3.004 5.036)" opacity=".8" fill="url(#e)"/><path data-name="Tracé 24" d="M17.47 46.313c0 .486-.243.851-.608.851h-2.554c-.365 0-.608-.365-.608-.851v-7.662c0-.486.243-.851.608-.851h2.554c.365 0 .608.365.608.851Z" transform="translate(2.961 8.17)" opacity=".8" fill="url(#f)"/></g></svg>